<?xml version="1.0" encoding="iso-8859-1"?>
<!-- Generator: Adobe Illustrator 19.0.0, SVG Export Plug-In . SVG Version: 6.00 Build 0)  -->
<svg version="1.1" id="Layer_1" xmlns="http://www.w3.org/2000/svg" xmlns:xlink="http://www.w3.org/1999/xlink" x="0px" y="0px"
	 viewBox="0 0 512 512" style="enable-background:new 0 0 512 512;" xml:space="preserve">
<g transform="translate(1 1)">
	<g>
		<g>
			<path d="M486.467,426.52c-11.375-16.909-23.974-31.143-37.547-42.456V41.667c0-14.507-11.093-25.6-25.6-25.6H312.387
				C312.387,6.68,304.707-1,295.32-1H175.853c-9.387,0-17.067,7.68-17.067,17.067H47.853c-14.507,0-25.6,11.093-25.6,25.6V485.4
				c0,14.507,11.093,25.6,25.6,25.6h320c45.227,0,87.04-26.453,117.76-73.387l0.853-1.707
				C488.173,433.347,488.173,429.08,486.467,426.52z M422.467,33.133c5.12,0,8.533,3.413,8.533,8.533V371.19
				c-5.29-3.222-10.698-6.033-16.213-8.412V67.267c0-9.387-7.68-17.067-17.067-17.067h-85.333V33.133H422.467z M408.813,412.013
				c0,23.04-18.773,41.813-41.813,41.813c-23.04,0-41.813-18.773-41.813-41.813c0-19.851,13.941-36.523,32.535-40.761
				c5.979-0.592,11.951-0.64,17.891-0.154C394.54,375.085,408.813,391.925,408.813,412.013z M175.853,84.333H295.32
				c9.387,0,17.067-7.68,17.067-17.067h84.48v289.28c-19.857-5.124-40.074-4.719-59.57,0.855
				c-32.06,8.848-61.234,31.358-84.386,66.141c-0.66,0.984-1.315,1.975-1.964,2.977l-0.853,1.707c-1.707,2.56-1.707,6.827,0,9.387
				c0.913,1.37,1.862,2.738,2.825,4.103c0.131,0.187,0.264,0.373,0.395,0.559c0.547,0.77,1.101,1.538,1.661,2.304
				c3.898,5.376,7.927,10.452,12.079,15.221H73.453V67.267h85.333C158.787,76.653,166.467,84.333,175.853,84.333z M175.853,16.067
				H295.32V24.6v34.133v8.533H175.853v-8.533V24.6V16.067z M47.853,493.933c-5.12,0-8.533-3.413-8.533-8.533V41.667
				c0-5.12,3.413-8.533,8.533-8.533h110.933V50.2H73.453c-9.387,0-17.067,7.68-17.067,17.067V459.8
				c0,9.387,7.68,17.067,17.067,17.067h210.459c7.464,6.607,15.235,12.318,23.279,17.067H47.853z M367.853,493.933
				c-25.366,0-50.322-10.201-72.335-29.745c-0.469-0.96-1.091-1.867-1.905-2.682c-9.387-8.533-17.92-17.92-25.6-29.013
				c13.613-19.629,29.107-34.906,45.695-45.451c-3.577,7.589-5.588,16.052-5.588,24.971c0,32.427,26.453,58.88,58.88,58.88
				c32.427,0,58.88-26.453,58.88-58.88c0-9.787-2.423-19.023-6.68-27.159c5.155,2.914,10.233,6.274,15.214,10.092
				c0.246,0.164,0.511,0.317,0.785,0.463c12.021,9.582,23.267,21.739,33.348,36.23C441.24,471.747,405.4,493.933,367.853,493.933z"
				/>
			<path d="M121.24,177.347c-12.8,0-22.187,10.24-22.187,22.187v33.28c0,12.8,9.387,22.187,22.187,22.187h13.034
				c3.814,14.679,17.216,25.6,33.046,25.6c15.829,0,29.232-10.921,33.046-25.6h70.442c3.814,14.679,17.216,25.6,33.046,25.6
				c15.829,0,29.232-10.921,33.046-25.6h13.034c12.8,0,22.187-9.387,23.04-22.187v-33.28c0-12.8-10.24-22.187-22.187-22.187h-18.176
				l-33.024-46.08c-5.12-7.68-13.653-11.947-23.04-11.947h-36.925c-1.169-0.55-2.525-0.853-4.035-0.853s-2.865,0.304-4.035,0.853
				h-36.925c-9.387,0-17.92,4.267-23.04,11.947l-33.024,46.08H121.24z M167.32,263.533c-9.387,0-17.067-7.68-17.067-17.067
				s7.68-17.067,17.067-17.067c9.387,0,17.067,7.68,17.067,17.067S176.707,263.533,167.32,263.533z M303.853,263.533
				c-9.387,0-17.067-7.68-17.067-17.067s7.68-17.067,17.067-17.067s17.067,7.68,17.067,17.067S313.24,263.533,303.853,263.533z
				 M355.907,199.533v33.28c0,2.56-2.56,5.12-5.12,5.12h-13.653c-4.267-14.507-15.36-25.6-31.573-25.6
				c-0.311,0-0.62,0.012-0.929,0.02c-0.259-0.006-0.517-0.02-0.778-0.02c-15.83,0-29.232,10.921-33.046,25.6h-69.354
				c-4.267-14.507-17.067-25.6-33.28-25.6c-0.156,0-0.309,0.008-0.464,0.01c-0.13-0.001-0.258-0.01-0.389-0.01
				c-15.83,0-29.232,10.921-33.046,25.6H121.24c-2.56,0-5.12-2.56-5.12-5.12v-33.28c0-2.56,2.56-5.12,5.12-5.12h16.642
				c1.132,0.538,2.405,0.853,3.838,0.853h187.733c1.433,0,2.706-0.315,3.838-0.853h17.495
				C353.347,194.413,355.907,196.973,355.907,199.533z M285.08,139.8l26.7,37.547h-67.66v-41.813h31.573
				C279.96,135.533,283.373,137.24,285.08,139.8z M184.387,139.8c2.56-2.56,5.973-4.267,9.387-4.267h33.28v41.813h-68.532
				L184.387,139.8z"/>
			<path d="M227.053,323.267H107.587c-5.12,0-8.533,3.413-8.533,8.533c0,5.12,3.413,8.533,8.533,8.533h119.467
				c5.12,0,8.533-3.413,8.533-8.533C235.587,326.68,232.173,323.267,227.053,323.267z"/>
			<path d="M227.053,365.933H107.587c-5.12,0-8.533,3.413-8.533,8.533s3.413,8.533,8.533,8.533h119.467
				c5.12,0,8.533-3.413,8.533-8.533S232.173,365.933,227.053,365.933z"/>
			<path d="M227.053,408.6H107.587c-5.12,0-8.533,3.413-8.533,8.533s3.413,8.533,8.533,8.533h119.467
				c5.12,0,8.533-3.413,8.533-8.533S232.173,408.6,227.053,408.6z"/>
		</g>
	</g>
</g>
<g>
</g>
<g>
</g>
<g>
</g>
<g>
</g>
<g>
</g>
<g>
</g>
<g>
</g>
<g>
</g>
<g>
</g>
<g>
</g>
<g>
</g>
<g>
</g>
<g>
</g>
<g>
</g>
<g>
</g>
</svg>
